<svg width="138" height="40" viewBox="0 0 138 40" fill="none" xmlns="http://www.w3.org/2000/svg">
<path d="M89.3916 25.5344C90.2099 24.7966 90.6175 23.8408 90.6175 22.6661C90.6175 21.7115 90.3385 20.9114 89.7795 20.2722C89.2185 19.6309 88.3463 19.0715 87.1588 18.5932C86.1881 18.2102 85.5191 17.8553 85.151 17.5274C84.7278 17.1725 84.5173 16.7211 84.5173 16.1753C84.5173 15.6824 84.7019 15.2663 85.0701 14.9249C85.5057 14.543 86.1134 14.351 86.8912 14.351C87.8754 14.351 88.7549 14.5627 89.5327 14.9861L90.0855 13.1826C89.2527 12.7457 88.2094 12.5267 86.9534 12.5267C85.5451 12.5267 84.4188 12.8889 83.5746 13.6142C82.7273 14.3386 82.3041 15.2694 82.3041 16.4046C82.3041 18.1418 83.5113 19.4628 85.9278 20.3645C86.8155 20.6935 87.4512 21.0494 87.8319 21.4323C88.2145 21.8152 88.4054 22.2874 88.4054 22.8477C88.4054 23.4766 88.1741 23.9809 87.7105 24.3566C87.2449 24.7322 86.5967 24.9211 85.7639 24.9211C84.6034 24.9211 83.5383 24.6264 82.5676 24.039L82.0552 25.883C82.9565 26.4569 84.1471 26.7433 85.6322 26.7433C87.2407 26.7433 88.4925 26.3407 89.3916 25.5344Z" fill="white"/>
<path fill-rule="evenodd" clip-rule="evenodd" d="M52.5924 26.5399H54.9477L50.483 12.7302H47.7388L43.2959 26.5399H45.5889L46.8179 22.4836H51.3023L52.5924 26.5399ZM49.7466 17.1757L50.9134 20.7817H47.2078L48.3538 17.1757C48.6546 16.029 48.8734 15.1615 49.0093 14.5742H49.0507C49.3919 15.9398 49.6232 16.8073 49.7466 17.1757Z" fill="white"/>
<path fill-rule="evenodd" clip-rule="evenodd" d="M66.3733 21.4385C66.3733 23.132 65.916 24.4707 65.0013 25.4534C64.1819 26.3281 63.1646 26.765 61.9501 26.765C60.6392 26.765 59.6976 26.2939 59.124 25.3517H59.0826V30.5973H56.8715V19.8601C56.8715 18.7954 56.8435 17.7027 56.7895 16.582H58.7341L58.8575 18.1604H58.899C59.6364 16.9712 60.7554 16.3776 62.2571 16.3776C63.4311 16.3776 64.4111 16.8414 65.1952 17.7702C65.9813 18.7 66.3733 19.9224 66.3733 21.4385ZM63.4653 19.1223C63.9029 19.7511 64.1207 20.5501 64.1207 21.5194C64.1207 22.5716 63.8884 23.4184 63.4238 24.0607C62.9602 24.702 62.312 25.0237 61.4793 25.0237C60.7699 25.0237 60.1933 24.7746 59.7494 24.2755C59.3055 23.7764 59.0836 23.1652 59.0836 22.4408V20.7805C59.0836 20.6041 59.1178 20.38 59.1862 20.106C59.3221 19.5187 59.6125 19.0444 60.0564 18.6812C60.4992 18.3211 60.9949 18.1385 61.5404 18.1385C62.3452 18.1385 62.9872 18.4664 63.4653 19.1223Z" fill="white"/>
<path fill-rule="evenodd" clip-rule="evenodd" d="M76.4466 25.4531C77.3624 24.4704 77.8197 23.1318 77.8197 21.4382C77.8197 19.9222 77.4267 18.6997 76.6437 17.77C75.8576 16.8412 74.8775 16.3774 73.7046 16.3774C72.2018 16.3774 71.0828 16.9709 70.3464 18.1601H70.305L70.1815 16.5818H68.237C68.2909 17.7025 68.3189 18.7952 68.3189 19.8599V30.597H70.53V25.3514H70.5715C71.144 26.2937 72.0857 26.7648 73.3965 26.7648C74.611 26.7648 75.6284 26.3279 76.4466 25.4531ZM75.5672 21.5186C75.5672 20.5494 75.3484 19.7504 74.9107 19.1215C74.4326 18.4657 73.7927 18.1378 72.9869 18.1378C72.4403 18.1378 71.9456 18.3204 71.5018 18.6805C71.0579 19.0437 70.7685 19.5179 70.6327 20.1053C70.5653 20.3792 70.53 20.6034 70.53 20.7798V22.4401C70.53 23.1644 70.7519 23.7756 71.1937 24.2748C71.6376 24.7729 72.2143 25.023 72.9257 25.023C73.7585 25.023 74.4067 24.7013 74.8703 24.06C75.3349 23.4176 75.5672 22.5709 75.5672 21.5186Z" fill="white"/>
<path d="M95.4908 18.2413H97.928V16.5789H95.4908V14.0999L93.3191 14.7557V16.5789H91.8672V18.2393H93.3191V23.2586C93.3191 24.5153 93.566 25.4098 94.0565 25.9432C94.5491 26.4755 95.2315 26.7422 96.1048 26.7422C96.8152 26.7422 97.3887 26.6602 97.8243 26.4973L97.7631 24.8173C97.5038 24.8858 97.1761 24.92 96.7809 24.92C95.9202 24.92 95.4908 24.3057 95.4908 23.076V18.2413Z" fill="white"/>
<path fill-rule="evenodd" clip-rule="evenodd" d="M107.613 25.2479C108.487 24.2652 108.924 23.0085 108.924 21.4779C108.924 19.9888 108.501 18.7737 107.653 17.8325C106.766 16.8622 105.591 16.3776 104.131 16.3776C102.616 16.3776 101.411 16.8695 100.518 17.8532C99.6226 18.8359 99.1766 20.0998 99.1766 21.6429C99.1766 23.1175 99.6101 24.3409 100.477 25.3102C101.344 26.2794 102.507 26.764 103.967 26.764C105.482 26.764 106.698 26.2597 107.613 25.2479ZM106.63 21.5494C106.63 20.631 106.434 19.8434 106.037 19.1865C105.573 18.3917 104.911 17.9952 104.052 17.9952C103.163 17.9952 102.488 18.3927 102.025 19.1865C101.627 19.8444 101.431 20.6445 101.431 21.5909C101.431 22.5093 101.627 23.2969 102.025 23.9527C102.503 24.7476 103.171 25.144 104.032 25.144C104.877 25.144 105.539 24.7393 106.017 23.932C106.425 23.2626 106.63 22.4667 106.63 21.5494Z" fill="white"/>
<path d="M116.111 18.526C115.893 18.4856 115.659 18.4648 115.414 18.4648C114.637 18.4648 114.035 18.7585 113.612 19.3469C113.244 19.8657 113.059 20.5215 113.059 21.3133V26.5382H110.849L110.87 19.7163C110.87 18.5686 110.842 17.5236 110.787 16.5814H112.713L112.794 18.4866H112.855C113.088 17.8318 113.456 17.3047 113.96 16.9093C114.453 16.5534 114.985 16.3759 115.559 16.3759C115.763 16.3759 115.947 16.3904 116.111 16.4164V18.526Z" fill="white"/>
<path fill-rule="evenodd" clip-rule="evenodd" d="M126 21.0881C126 21.4845 125.974 21.8186 125.919 22.0915H119.286C119.312 23.0753 119.632 23.8276 120.248 24.3465C120.807 24.8103 121.53 25.0428 122.418 25.0428C123.4 25.0428 124.296 24.8861 125.102 24.5716L125.448 26.1075C124.507 26.5184 123.395 26.7228 122.112 26.7228C120.569 26.7228 119.357 26.2683 118.476 25.3603C117.596 24.4523 117.156 23.233 117.156 21.7034C117.156 20.2019 117.565 18.9514 118.386 17.9542C119.244 16.8895 120.405 16.3572 121.865 16.3572C123.299 16.3572 124.385 16.8895 125.123 17.9542C125.707 18.7999 126 19.8459 126 21.0881ZM123.462 18.8134C123.762 19.2918 123.906 19.8584 123.892 20.5142V20.5132H119.286C119.353 19.8449 119.572 19.2711 119.94 18.7927C120.389 18.1908 120.977 17.8909 121.7 17.8909C122.492 17.8909 123.08 18.1981 123.462 18.8134Z" fill="white"/>
<path d="M28.1517 6.65808C28.3254 8.23642 27.6999 9.79175 26.7857 10.935C25.8318 12.0604 24.3058 12.9212 22.8195 12.8104C22.6249 11.2916 23.378 9.67669 24.221 8.69141C25.1739 7.57329 26.8286 6.71665 28.1517 6.65808Z" fill="white"/>
<path d="M33.0173 15.763C32.8514 15.862 30.1026 17.5026 30.1327 20.8485C30.1672 24.889 33.667 26.2247 33.7099 26.2394C33.6889 26.3335 33.1618 28.1671 31.8491 30.0289C30.7529 31.6679 29.6045 33.2703 27.7804 33.2995C26.9131 33.3195 26.3276 33.0701 25.7174 32.8103C25.0809 32.5392 24.4176 32.2567 23.38 32.2567C22.28 32.2567 21.5873 32.5483 20.9192 32.8294C20.3417 33.0725 19.7825 33.3078 18.9944 33.3403C17.257 33.4041 15.9297 31.5905 14.7938 29.9661C12.5231 26.6494 10.7554 20.6195 13.1255 16.5162C14.274 14.5038 16.368 13.2079 18.6063 13.1734C19.592 13.1532 20.5373 13.5331 21.3661 13.8661C21.9998 14.1207 22.5654 14.348 23.0286 14.348C23.4355 14.348 23.9851 14.1298 24.6258 13.8755C25.6354 13.4748 26.871 12.9844 28.1297 13.1169C28.9905 13.142 31.4401 13.4568 33.0206 15.761L33.0173 15.763Z" fill="white"/>
</svg>
