<svg width="155" height="40" viewBox="0 0 155 40" fill="none" xmlns="http://www.w3.org/2000/svg">
<path fill-rule="evenodd" clip-rule="evenodd" d="M12.8923 5.21655C12.3506 5.38807 12 5.94319 12 6.78304L12.0033 33.2156C12.0033 34.0461 12.343 34.5928 12.8697 34.7753L27.4806 19.9841L12.8923 5.21655Z" fill="url(#paint0_linear_58_31)"/>
<path fill-rule="evenodd" clip-rule="evenodd" d="M12.8696 34.7751C13.2486 34.9052 13.7235 34.8444 14.241 34.5571L32.0712 24.631L27.4805 19.9839L12.8696 34.7751Z" fill="url(#paint1_linear_58_31)"/>
<path fill-rule="evenodd" clip-rule="evenodd" d="M32.0741 24.6309L38.1539 21.247C39.3867 20.5584 39.3867 19.438 38.1539 18.7511L32.0516 15.3545L27.481 19.9813L32.0741 24.6309Z" fill="url(#paint2_linear_58_31)"/>
<path fill-rule="evenodd" clip-rule="evenodd" d="M32.0504 15.3547L14.2411 5.44206C13.7361 5.16239 13.2703 5.09734 12.8931 5.21647L27.4806 19.9815L32.0504 15.3547Z" fill="url(#paint3_linear_58_31)"/>
<path d="M97.4867 25.239C96.8083 25.1752 96.6651 25.0489 96.6651 24.237L96.67 12.3841C96.752 11.6527 96.9435 11.4241 97.5834 11.0488H94.6309L93.0843 11.8031H94.6908L94.6988 24.6953C94.6988 25.0726 94.6318 25.16 94.2664 25.6363C94.2276 25.6869 94.1854 25.7418 94.1396 25.802H97.778L98.5415 25.3418C98.3656 25.3206 98.1887 25.3053 98.0112 25.29C97.8369 25.275 97.662 25.2599 97.4867 25.239Z" fill="white"/>
<path d="M60.888 25.3468L58.1202 25.9884C56.9988 26.1674 55.9918 26.3247 54.9255 26.3247C49.5869 26.3247 47.5527 22.3469 47.5527 19.2336C47.5527 15.4317 50.4349 11.9066 55.3708 11.9066C56.4152 11.9066 57.4197 12.0621 58.335 12.3147C59.7189 12.7082 60.4 13.1891 60.8279 13.4911L60.888 13.5335L59.2802 15.0793L58.6023 15.2329L59.0857 14.4532L59.0814 14.449C58.4258 13.8009 57.2227 12.6114 54.9438 12.6114C51.8904 12.6114 49.5869 14.961 49.5869 18.3914C49.5869 22.0756 52.2171 25.5413 56.4354 25.5413C57.6749 25.5413 58.313 25.2892 58.8923 25.0539V21.8954L55.9698 22.0546L57.5189 21.2123H61.6203L61.1187 21.701C60.9834 21.8174 60.9651 21.857 60.9272 22.0131C60.907 22.1915 60.888 22.7587 60.888 22.9582V25.3468Z" fill="white"/>
<path fill-rule="evenodd" clip-rule="evenodd" d="M67.2354 26.072C63.9531 26.072 62.2003 23.4851 62.2003 21.1429C62.2003 18.4062 64.4083 16.0646 67.5468 16.0646C70.5801 16.0646 72.4791 18.47 72.4791 20.9955C72.4791 23.4622 70.6027 26.072 67.2354 26.072ZM70.4369 22.0638C70.4369 22.8776 70.3133 23.7124 69.8177 24.3813C69.3411 25.0489 68.5183 25.4446 67.7126 25.4446C65.2146 25.4446 64.2021 22.0391 64.2021 19.9743C64.2021 19.0726 64.3452 18.1535 65.1528 17.4221C65.6484 16.9824 66.3268 16.713 67.0102 16.713C69.5681 16.713 70.4369 20.2232 70.4369 22.0638Z" fill="white"/>
<path fill-rule="evenodd" clip-rule="evenodd" d="M78.2225 26.072C74.9409 26.072 73.185 23.4851 73.185 21.1429C73.185 18.4062 75.3924 16.0646 78.5321 16.0646C81.5672 16.0646 83.468 18.47 83.468 20.9955C83.468 23.4622 81.5892 26.072 78.2225 26.072ZM81.4247 22.0638C81.4247 22.8776 81.3036 23.7124 80.8044 24.3813C80.329 25.0489 79.5049 25.4446 78.6974 25.4446C76.1951 25.4446 75.1869 22.0391 75.1869 19.9743C75.1869 19.0726 75.3307 18.1535 76.137 17.4221C76.6313 16.9824 77.3172 16.713 77.9981 16.713C80.5584 16.713 81.4247 20.2232 81.4247 22.0638Z" fill="white"/>
<path fill-rule="evenodd" clip-rule="evenodd" d="M91.0225 17.0901C91.4966 17.4846 92.4859 18.322 92.4859 19.9099C92.4859 21.4575 91.6239 22.1871 90.7545 22.8776L90.7175 22.9153C90.4597 23.1769 90.1758 23.4652 90.1758 23.9001C90.1758 24.354 90.4762 24.604 90.6996 24.7899L90.7123 24.8005L91.4581 25.3833C92.3648 26.1581 93.1913 26.8684 93.1913 28.3114C93.1913 30.2771 91.3119 32.2595 87.7604 32.2595C84.7687 32.2595 83.3225 30.8171 83.3225 29.2707C83.3225 28.5182 83.6926 27.4524 84.9137 26.7222C86.1767 25.9406 87.8816 25.8272 88.8188 25.7648L88.8561 25.7623L88.813 25.706C88.5343 25.3435 88.2352 24.9544 88.2352 24.3385C88.2352 24.0216 88.3194 23.8192 88.4099 23.6018L88.4103 23.6008C88.4208 23.5755 88.4314 23.55 88.442 23.5241L88.4275 23.5255C88.2065 23.5468 87.9842 23.5681 87.7818 23.5681C85.5922 23.5681 84.3546 21.9146 84.3546 20.2852C84.3546 19.324 84.7877 18.2575 85.6773 17.4846C86.8543 16.5037 88.2578 16.3346 89.3731 16.3346H93.6275L92.3048 17.0901H91.0225ZM89.0843 26.3457C89.2887 26.3457 89.3902 26.3457 89.5597 26.368C91.1259 27.4982 91.8068 28.0606 91.8068 29.1264C91.8068 30.4214 90.7545 31.3832 88.7723 31.3832C86.5662 31.3832 85.1401 30.3148 85.1401 28.8335C85.1401 27.349 86.461 26.8492 86.918 26.6801C87.7818 26.3866 88.8971 26.3457 89.0843 26.3457ZM90.1531 22.397C90.6303 21.9146 90.6719 21.2482 90.6719 20.8698C90.6719 19.3667 89.7867 17.0258 88.0706 17.0258C87.5353 17.0258 86.9553 17.2976 86.6261 17.7181C86.2768 18.1535 86.1722 18.7183 86.1722 19.2615C86.1722 20.6611 86.9785 22.9823 88.7521 22.9823C89.2697 22.9823 89.8264 22.7277 90.1531 22.397Z" fill="white"/>
<path fill-rule="evenodd" clip-rule="evenodd" d="M106.813 24.3986L105.825 25.3418C105.749 25.3841 105.674 25.4286 105.598 25.4731C105.446 25.5622 105.295 25.651 105.144 25.7208C104.458 26.036 103.761 26.1153 103.141 26.1153C102.481 26.1153 101.447 26.072 100.393 25.2997C98.9275 24.2549 98.287 22.4589 98.287 20.8939C98.287 17.6537 100.893 16.0646 103.018 16.0646C103.761 16.0646 104.524 16.2528 105.144 16.6498C106.164 17.3324 106.436 18.2171 106.585 18.7016L106.59 18.7183L101.737 20.7032L100.147 20.8283C100.662 23.4851 102.437 25.0303 104.399 25.0303C105.379 25.0303 106.107 24.7064 106.774 24.3726C106.774 24.3726 106.908 24.302 106.813 24.3986ZM104.484 18.553C104.484 18.8441 104.279 18.9692 103.885 19.1141L100.127 20.7652C100.12 20.6366 100.11 20.5079 100.1 20.3803C100.082 20.1355 100.064 19.8937 100.064 19.6622C100.064 17.4042 101.613 16.7539 102.437 16.7539C103.551 16.7539 104.484 17.7182 104.484 18.553Z" fill="white"/>
<path fill-rule="evenodd" clip-rule="evenodd" d="M112.764 24.4878V29.8107H111.719V16.2659H112.764V17.8086C113.444 16.8115 114.687 16.0212 116.131 16.0212C118.721 16.0212 120.465 18.0098 120.465 21.1578C120.465 24.2847 118.721 26.3148 116.131 26.3148C114.768 26.3148 113.547 25.6032 112.764 24.4878ZM115.955 16.9756C118.121 16.9756 119.343 18.7852 119.343 21.1578C119.343 23.5341 118.121 25.3592 115.955 25.3592C114.61 25.3592 113.323 24.25 112.764 23.3148V18.979C113.323 18.0457 114.61 16.9756 115.955 16.9756Z" fill="white"/>
<path d="M121.891 12.5259H122.935V26.0708H121.891V12.5259Z" fill="white"/>
<path fill-rule="evenodd" clip-rule="evenodd" d="M131.442 25.1516C131.48 25.4018 131.533 25.7016 131.603 26.0416H132.806C132.713 25.7251 132.642 25.3981 132.598 25.0705C132.555 24.7435 132.539 24.4078 132.539 24.0604V19.2236C132.539 18.1881 132.191 17.396 131.497 16.848C130.803 16.2943 129.881 16.0168 128.743 16.0168C127.601 16.0168 126.672 16.2986 125.964 16.8591C125.252 17.4202 124.918 18.0698 124.956 18.8105L124.978 18.8632H126.047C126.047 18.3139 126.29 17.858 126.772 17.4902C127.259 17.1297 127.897 16.9446 128.685 16.9446C129.546 16.9446 130.21 17.1471 130.684 17.5478C131.156 17.9478 131.392 18.4996 131.392 19.2013V20.4195H128.956C127.651 20.4195 126.596 20.692 125.78 21.2401C124.964 21.7857 124.554 22.4991 124.554 23.3779C124.554 24.258 124.837 24.9535 125.399 25.4669C125.962 25.9809 126.752 26.2342 127.769 26.2342C128.614 26.2342 129.23 26.062 129.879 25.7109C130.527 25.3622 131.034 24.9194 131.392 24.3874C131.392 24.6469 131.41 24.9021 131.442 25.1516ZM127.897 25.2713C128.784 25.2713 129.422 25.0706 130.073 24.6737C130.721 24.2792 131.161 23.7645 131.392 23.1415V21.2588H128.945C128.01 21.2588 127.236 21.4681 126.627 21.8905C126.017 22.3116 125.708 22.8213 125.708 23.414C125.708 23.9732 125.904 24.4204 126.293 24.7591C126.683 25.1016 127.217 25.2713 127.897 25.2713Z" fill="white"/>
<path d="M135.499 29.098C135.258 29.098 134.877 29.0361 134.653 28.9352L134.474 29.9106C134.735 29.9917 135.18 30.0524 135.518 30.0524C136.643 30.0524 137.462 29.4597 137.983 28.2273L143 16.266H141.819L138.324 24.8335L134.795 16.266H133.63L137.744 26.1526L136.982 27.8997C136.583 28.8336 136.138 29.098 135.499 29.098Z" fill="white"/>
<defs>
<linearGradient id="paint0_linear_58_31" x1="12" y1="5.21655" x2="12" y2="34.7753" gradientUnits="userSpaceOnUse">
<stop stop-color="#1E79AF"/>
<stop offset="1" stop-color="#63FFD3"/>
</linearGradient>
<linearGradient id="paint1_linear_58_31" x1="21.253" y1="16.2266" x2="9.91742" y2="31.3648" gradientUnits="userSpaceOnUse">
<stop stop-color="#DC4057"/>
<stop offset="1" stop-color="#9E36BB"/>
</linearGradient>
<linearGradient id="paint2_linear_58_31" x1="27.607" y1="15.3545" x2="27.607" y2="24.4292" gradientUnits="userSpaceOnUse">
<stop stop-color="#FF9676"/>
<stop offset="1" stop-color="#FFD074"/>
</linearGradient>
<linearGradient id="paint3_linear_58_31" x1="6.65611" y1="11.2778" x2="17.9628" y2="28.9797" gradientUnits="userSpaceOnUse">
<stop stop-color="#51C6AD"/>
<stop offset="1" stop-color="#D5FFA1"/>
</linearGradient>
</defs>
</svg>
