<svg width="140" height="40" viewBox="0 0 140 40" fill="none" xmlns="http://www.w3.org/2000/svg">
<path d="M95.3804 12.4934V22.7867C95.3804 24.2889 96.075 25.0445 97.4642 25.0534C97.7227 25.0514 97.9806 25.0282 98.2353 24.984C98.4713 24.9478 98.7029 24.887 98.9263 24.8027L98.6915 23.3734C98.5181 23.4257 98.3389 23.4562 98.1579 23.464C98.0463 23.4737 97.9341 23.4579 97.8296 23.4177C97.7251 23.3775 97.6312 23.314 97.5549 23.232C97.4039 22.9941 97.3372 22.7124 97.3655 22.432V12.3334L95.3804 12.4934Z" fill="white"/>
<path d="M75.613 22.2803C76.0556 23.1457 76.7481 23.8583 77.6007 24.3256C78.5396 24.8232 79.5906 25.0711 80.653 25.0456C81.3912 25.0447 82.1269 24.9606 82.8462 24.795C83.5716 24.632 84.2774 24.3915 84.9513 24.0776V19.147H80.3062V20.6963H83.0116V23.075C82.6577 23.2039 82.2923 23.2985 81.9203 23.3576C81.5359 23.4223 81.1469 23.4553 80.7571 23.4563C80.0048 23.4871 79.2608 23.2901 78.6226 22.891C78.0624 22.5176 77.6303 21.9815 77.3846 21.355C77.114 20.6471 76.9818 19.8939 76.995 19.1363C76.9707 18.2954 77.1444 17.4605 77.502 16.699C77.813 16.0569 78.3104 15.5234 78.9294 15.1683C79.5818 14.8065 80.3179 14.6225 81.0639 14.635C82.1207 14.6577 83.1591 14.9165 84.1028 15.3923L84.6205 13.859C84.0756 13.5937 83.5028 13.3898 82.9129 13.251C82.2821 13.0993 81.6353 13.0241 80.9865 13.027C79.9167 13.0115 78.8582 13.2482 77.8969 13.7176C76.9821 14.1754 76.2243 14.8948 75.7197 15.7843C75.1609 16.8092 74.8847 17.9642 74.9193 19.131C74.8911 20.2215 75.1292 21.3024 75.613 22.2803Z" fill="white"/>
<path fill-rule="evenodd" clip-rule="evenodd" d="M48.0835 21.7469H52.7767L53.9533 24.8775H56.1118L51.4186 13.1815H49.4709L44.8818 24.8775H46.9443L48.0835 21.7469ZM52.1764 20.1469H48.6812L49.9245 16.7815C50.1006 16.2642 50.266 15.7602 50.4181 15.2642C50.5835 15.8242 50.7543 16.3362 50.9251 16.7975L52.1764 20.1469Z" fill="white"/>
<path fill-rule="evenodd" clip-rule="evenodd" d="M56.8775 16.1654C56.9202 16.9422 56.9415 17.6534 56.9415 18.2987L56.9255 28.5147L58.9212 28.344V24.736C59.4846 24.9334 60.0772 25.0343 60.6742 25.0347C61.4328 25.0495 62.181 24.8568 62.838 24.4774C63.4765 24.0895 63.984 23.5191 64.2948 22.84C64.6663 22.0218 64.8487 21.1304 64.8284 20.232C64.8562 19.4081 64.7004 18.5883 64.3721 17.832C64.1382 17.2819 63.7454 16.814 63.244 16.4881C62.7426 16.1623 62.1553 15.9932 61.5573 16.0027C61.0473 16.0094 60.5448 16.1263 60.0842 16.3454C59.6237 16.5645 59.216 16.8806 58.8892 17.272C58.8634 16.9006 58.8153 16.531 58.7451 16.1654H56.8775ZM62.798 20.344C62.798 21.4107 62.5925 22.2107 62.187 22.744C61.9805 23.0083 61.7128 23.2185 61.4069 23.3565C61.1011 23.4945 60.7663 23.5561 60.4314 23.536C60.1676 23.535 59.9047 23.5064 59.647 23.4507C59.4073 23.4026 59.1744 23.3256 58.9533 23.2214V18.5547C59.2271 18.265 59.5428 18.0178 59.8898 17.8214C60.2164 17.6416 60.5841 17.5497 60.957 17.5547C61.2159 17.548 61.4725 17.6043 61.7048 17.7185C61.9372 17.8328 62.1383 18.0017 62.291 18.2107C62.629 18.6605 62.798 19.3716 62.798 20.344Z" fill="white"/>
<path fill-rule="evenodd" clip-rule="evenodd" d="M66.0421 18.2987C66.0421 17.6534 66.0207 16.9422 65.978 16.1654H67.8457C67.9181 16.5308 67.9671 16.9004 67.9924 17.272C68.7697 16.4258 69.6591 16.0027 70.6605 16.0027C71.2585 15.9932 71.8458 16.1623 72.3472 16.4881C72.8486 16.814 73.2414 17.2819 73.4753 17.832C73.8036 18.5883 73.9594 19.4081 73.9316 20.232C73.9561 21.1294 73.7783 22.0207 73.4113 22.84C73.0998 23.5195 72.5914 24.0899 71.9519 24.4774C71.2951 24.8572 70.5467 25.0499 69.788 25.0347C69.1911 25.0343 68.5985 24.9334 68.0351 24.736V28.344L66.0394 28.5147L66.0421 18.2987ZM71.2955 22.744C71.7011 22.1982 71.9038 21.3982 71.9038 20.344C71.9038 19.3716 71.7358 18.6605 71.3996 18.2107C71.2469 18.0017 71.0457 17.8328 70.8134 17.7185C70.581 17.6043 70.3244 17.548 70.0655 17.5547C69.6927 17.5502 69.3251 17.6421 68.9983 17.8214C68.6513 18.0178 68.3357 18.265 68.0618 18.5547V23.2214C68.2832 23.3248 68.5161 23.4017 68.7555 23.4507C69.0133 23.5064 69.2762 23.535 69.5399 23.536C69.8748 23.5556 70.2094 23.4938 70.5152 23.3559C70.8209 23.2179 71.0887 23.008 71.2955 22.744Z" fill="white"/>
<path fill-rule="evenodd" clip-rule="evenodd" d="M92.0402 24.8776C91.9648 24.4968 91.9184 24.1108 91.9015 23.7229C91.5682 24.1105 91.1609 24.4278 90.7035 24.6562C90.1871 24.9177 89.6148 25.0495 89.0359 25.0402C88.5623 25.0462 88.0935 24.945 87.6646 24.7442C87.2565 24.553 86.9154 24.2436 86.6854 23.8562C86.4305 23.4172 86.3038 22.9156 86.3198 22.4082C86.3049 22.0234 86.3798 21.6404 86.5386 21.2896C86.6975 20.9387 86.9359 20.6297 87.235 20.3869C87.8433 19.882 88.8581 19.6305 90.2793 19.6322C90.8087 19.632 91.3374 19.6694 91.8615 19.7442V19.5736C91.8615 18.8056 91.6978 18.2634 91.3705 17.9469C90.9793 17.6104 90.4715 17.4409 89.9564 17.4749C89.4951 17.4805 89.0363 17.5432 88.5904 17.6616C88.1486 17.768 87.718 17.9163 87.3044 18.1042L86.9895 16.6536C87.442 16.4606 87.9119 16.3114 88.3929 16.2082C88.9979 16.0715 89.6164 16.0035 90.2366 16.0056C90.8937 15.9876 91.5476 16.1047 92.1576 16.3496C92.6942 16.5867 93.1311 17.0036 93.3929 17.5282C93.7204 18.2308 93.8732 19.002 93.8385 19.7762V23.2429C93.8385 23.5985 93.8599 24.1442 93.9025 24.8802L92.0402 24.8776ZM90.8449 23.2776C91.2295 23.099 91.575 22.8461 91.8615 22.5336V20.9336C91.4186 20.8813 90.9733 20.8519 90.5274 20.8456C89.7039 20.8456 89.1338 20.9789 88.8172 21.2456C88.6627 21.376 88.54 21.5398 88.4581 21.7246C88.3763 21.9093 88.3376 22.1103 88.3449 22.3122C88.3305 22.4867 88.3537 22.6623 88.4131 22.827C88.4725 22.9917 88.5666 23.1417 88.6891 23.2669C88.9492 23.4861 89.2832 23.5977 89.6229 23.5789C90.0479 23.5725 90.4658 23.4694 90.8449 23.2776Z" fill="white"/>
<path d="M100.346 22.7867V12.4934L102.334 12.3334V22.432C102.305 22.7124 102.372 22.9941 102.523 23.232C102.599 23.314 102.693 23.3775 102.798 23.4177C102.902 23.4579 103.015 23.4737 103.126 23.464C103.307 23.4562 103.486 23.4257 103.66 23.3734L103.892 24.8027C103.669 24.887 103.439 24.9478 103.203 24.984C102.948 25.0283 102.689 25.0515 102.43 25.0534C101.042 25.0445 100.348 24.2889 100.346 22.7867Z" fill="white"/>
<path fill-rule="evenodd" clip-rule="evenodd" d="M106.354 20.776H112.056V20.24C112.066 19.5093 111.93 18.7839 111.656 18.1067C111.406 17.485 110.979 16.9501 110.428 16.568C109.818 16.1658 109.097 15.9636 108.366 15.9894C107.629 15.9749 106.903 16.1651 106.269 16.5387C105.649 16.9214 105.157 17.4779 104.852 18.1387C104.495 18.9174 104.32 19.7676 104.342 20.624C104.32 21.4414 104.484 22.2531 104.823 22.9974C105.129 23.6398 105.632 24.1684 106.258 24.5067C106.981 24.88 107.787 25.0635 108.601 25.04C109.736 25.0572 110.86 24.8146 111.888 24.3307L111.45 22.9654C111.052 23.1337 110.641 23.2675 110.22 23.3654C109.808 23.4624 109.387 23.5125 108.963 23.5147C107.315 23.5147 106.445 22.6018 106.354 20.776ZM109.577 17.9467C109.926 18.3924 110.115 18.9432 110.111 19.5094L106.402 19.504C106.455 18.9291 106.685 18.3848 107.061 17.9467C107.223 17.774 107.419 17.6373 107.637 17.5454C107.854 17.4535 108.089 17.4085 108.326 17.4134C108.561 17.405 108.795 17.4484 109.011 17.5406C109.227 17.6328 109.421 17.7714 109.577 17.9467Z" fill="white"/>
<path d="M113.566 18.3549C113.566 17.8776 113.542 17.1469 113.499 16.1682H115.367C115.399 16.4109 115.428 16.7016 115.46 17.0349C115.492 17.3682 115.508 17.6456 115.519 17.8562C115.72 17.5164 115.949 17.1935 116.202 16.8909C116.422 16.6323 116.688 16.4163 116.987 16.2536C117.3 16.0844 117.652 15.999 118.008 16.0056C118.279 15.999 118.548 16.0322 118.809 16.1042L118.558 17.8322C118.246 17.7419 117.918 17.7189 117.596 17.7649C117.274 17.8108 116.965 17.9247 116.69 18.0989C116.249 18.427 115.864 18.8251 115.551 19.2776V24.8776H113.566V18.3549Z" fill="white"/>
<path d="M119.201 28.2697C119.435 28.3457 119.675 28.4037 119.918 28.443C120.228 28.4957 120.541 28.5215 120.855 28.5203C121.452 28.5371 122.044 28.409 122.581 28.147C123.082 27.8772 123.508 27.4867 123.819 27.011C124.228 26.3811 124.557 25.7031 124.798 24.9923L128 16.1683H125.991L124.363 21.1177C124.158 21.747 123.982 22.3763 123.83 23.0057C123.701 22.3531 123.532 21.7092 123.323 21.0777L121.69 16.1683H119.556L122.771 24.9523L122.64 25.275C122.206 26.411 121.544 26.979 120.655 26.979C120.46 26.9776 120.265 26.9598 120.073 26.9257C119.902 26.898 119.731 26.8615 119.564 26.8163L119.201 28.2697Z" fill="white"/>
<path fill-rule="evenodd" clip-rule="evenodd" d="M30.207 7.33337H19.1318C13.9104 7.33337 12 9.24271 12 14.4614V25.5387C12 30.7574 13.9104 32.6667 19.1318 32.6667H30.207C35.4285 32.6667 37.3415 30.7574 37.3415 25.5387V14.4614C37.3468 9.24271 35.4365 7.33337 30.207 7.33337Z" fill="#C8102E"/>
<path d="M24.6728 15.7837C23.5543 15.783 22.4818 15.3386 21.6909 14.5481C20.8999 13.7576 20.4553 12.6857 20.4546 11.5677H21.0496C21.0496 12.5282 21.4313 13.4493 22.1108 14.1284C22.7903 14.8075 23.7119 15.1891 24.6728 15.1891C25.6338 15.1891 26.5554 14.8075 27.2349 14.1284C27.9144 13.4493 28.2961 12.5282 28.2961 11.5677H28.8911C28.8904 12.6857 28.4457 13.7576 27.6548 14.5481C26.8639 15.3386 25.7914 15.783 24.6728 15.7837Z" fill="white"/>
<path d="M17.0181 19.9999H17.6905V23.3145H17.0181V21.9679H15.5V23.3145H14.8276V19.9999H15.5V21.3332H17.0181V19.9999ZM20.8068 21.8959C20.8068 22.4292 20.54 22.7225 20.0544 22.7225C19.5688 22.7225 19.2967 22.4292 19.2967 21.8665V19.9999H18.6243V21.8932C18.6243 22.8239 19.1419 23.3572 20.0437 23.3572C20.9456 23.3572 21.4792 22.8239 21.4792 21.8639V19.9999H20.8068V21.8959ZM28.5763 22.2772L27.8239 19.9999H27.2716L26.5245 22.2799L25.7908 19.9999H25.0758L26.231 23.3145H26.7887L27.5384 21.1385L28.2908 23.3145H28.8538L30.0091 19.9999H29.31L28.5763 22.2772ZM31.2124 21.8852H32.437V21.2852H31.2124V20.6079H32.9893V19.9999H30.5507V23.3065H33.0533V22.7092H31.2124V21.8852ZM33.8538 23.3065H34.5181V19.9999H33.8538V23.3065ZM22.8079 22.6212L22.5064 23.3092H21.8207L23.2695 19.9999H23.8618L25.3159 23.3092H24.6222L24.3367 22.6239L22.8079 22.6212ZM23.0587 22.0239H24.0699L23.563 20.8399L23.0587 22.0239Z" fill="white"/>
</svg>
